0
SECTION
2
HEADER
9
$INSUNITS
70
4
9
$ACADVER
1
AC1014
9
$HANDSEED
5
FFFF
0
ENDSEC
0
SECTION
2
TABLES
0
TABLE
2
VPORT
5
8
100
AcDbSymbolTable
0
ENDTAB
0
TABLE
2
LTYPE
5
5
100
AcDbSymbolTable
0
LTYPE
5
14
100
AcDbSymbolTableRecord
100
AcDbLinetypeTableRecord
2
BYBLOCK
70
0
0
LTYPE
5
15
100
AcDbSymbolTableRecord
100
AcDbLinetypeTableRecord
2
BYLAYER
70
0
0
LTYPE
5
16
100
AcDbSymbolTableRecord
100
AcDbLinetypeTableRecord
2
DASHED
70
0
3
Dashed __ __ __ __ __ __ __ __ __ __ __ __ __ _
72
65
73
2
40
0.75
49
0.5
74
0
49
-0.25
74
0
0
ENDTAB
0
TABLE
2
LAYER
5
2
100
AcDbSymbolTable
70
2
0
LAYER
5
50
100
AcDbSymbolTableRecord
100
AcDbLayerTableRecord
2
0
70
0
62
7
6
CONTINUOUS
0
ENDTAB
0
TABLE
2
STYLE
5
3
100
AcDbSymbolTable
70
1
0
STYLE
5
11
100
AcDbSymbolTableRecord
100
AcDbTextStyleTableRecord
2
STANDARD
70
0
0
ENDTAB
0
TABLE
2
VIEW
5
6
100
AcDbSymbolTable
70
0
0
ENDTAB
0
TABLE
2
UCS
5
7
100
AcDbSymbolTable
70
0
0
ENDTAB
0
TABLE
2
APPID
5
9
100
AcDbSymbolTable
70
2
0
APPID
5
12
100
AcDbSymbolTableRecord
100
AcDbRegAppTableRecord
2
ACAD
70
0
0
ENDTAB
0
TABLE
2
DIMSTYLE
5
A
100
AcDbSymbolTable
70
1
0
ENDTAB
0
TABLE
2
BLOCK_RECORD
5
1
100
AcDbSymbolTable
70
1
0
BLOCK_RECORD
5
1F
100
AcDbSymbolTableRecord
100
AcDbBlockTableRecord
2
*MODEL_SPACE
0
BLOCK_RECORD
5
1B
100
AcDbSymbolTableRecord
100
AcDbBlockTableRecord
2
*PAPER_SPACE
0
ENDTAB
0
ENDSEC
0
SECTION
2
BLOCKS
0
BLOCK
5
20
100
AcDbEntity
100
AcDbBlockBegin
2
*MODEL_SPACE
0
ENDBLK
5
21
100
AcDbEntity
100
AcDbBlockEnd
0
BLOCK
5
1C
100
AcDbEntity
100
AcDbBlockBegin
2
*PAPER_SPACE
0
ENDBLK
5
1D
100
AcDbEntity
100
AcDbBlockEnd
0
ENDSEC
0
SECTION
2
ENTITIES
0
CIRCLE
5
100
100
AcDbEntity
8
0
100
AcDbCircle
10
16.967199999999998
20
2.1589999999999998
30
0
40
1.27
210
0
220
0
230
1
0
CIRCLE
5
101
100
AcDbEntity
8
0
100
AcDbCircle
10
56.616600000000005
20
2.1844000000000001
30
0
40
1.27
210
0
220
0
230
1
0
CIRCLE
5
102
100
AcDbEntity
8
0
100
AcDbCircle
10
65.862200000000001
20
65.786000000000001
30
0
40
1.27
210
0
220
0
230
1
0
CIRCLE
5
103
100
AcDbEntity
8
0
100
AcDbCircle
10
65.862200000000001
20
90.932000000000016
30
0
40
1.27
210
0
220
0
230
1
0
CIRCLE
5
104
100
AcDbEntity
8
0
100
AcDbCircle
10
7.7215999999999996
20
90.932000000000016
30
0
40
1.27
210
0
220
0
230
1
0
CIRCLE
5
105
100
AcDbEntity
8
0
100
AcDbCircle
10
7.7215999999999996
20
65.786000000000001
30
0
40
1.27
210
0
220
0
230
1
0
LWPOLYLINE
5
106
100
AcDbEntity
8
0
100
AcDbPolyline
90
4
70
1
43
0.0
10
11.785600000000001
20
65.506600000000006
10
11.785600000000001
20
91.211399999999998
10
62.585599999999999
20
91.211399999999998
10
62.585599999999999
20
65.506600000000006
0
CIRCLE
5
107
100
AcDbEntity
8
0
100
AcDbCircle
10
7.0611999999999977
20
39.776400000000002
30
0
40
3.149999999999999
210
0
220
0
230
1
0
CIRCLE
5
108
100
AcDbEntity
8
0
100
AcDbCircle
10
26.898599999999998
20
39.8018
30
0
40
3.1499999999999995
210
0
220
0
230
1
0
CIRCLE
5
109
100
AcDbEntity
8
0
100
AcDbCircle
10
46.710600000000007
20
39.827199999999998
30
0
40
3.1499999999999977
210
0
220
0
230
1
0
CIRCLE
5
110
100
AcDbEntity
8
0
100
AcDbCircle
10
66.535300000000007
20
39.789100000000005
30
0
40
3.1499999999999959
210
0
220
0
230
1
0
CIRCLE
5
111
100
AcDbEntity
8
0
100
AcDbCircle
10
7.0612000000000013
20
28.295600000000004
30
0
40
3.1499999999999995
210
0
220
0
230
1
0
CIRCLE
5
112
100
AcDbEntity
8
0
100
AcDbCircle
10
26.873199999999997
20
28.295600000000004
30
0
40
3.1499999999999995
210
0
220
0
230
1
0
CIRCLE
5
113
100
AcDbEntity
8
0
100
AcDbCircle
10
46.710599999999999
20
28.295600000000004
30
0
40
3.1500000000000004
210
0
220
0
230
1
0
CIRCLE
5
114
100
AcDbEntity
8
0
100
AcDbCircle
10
66.535300000000021
20
28.282899999999998
30
0
40
3.1500000000000017
210
0
220
0
230
1
0
CIRCLE
5
115
100
AcDbEntity
8
0
100
AcDbCircle
10
7.0612000000000013
20
16.789400000000001
30
0
40
3.1499999999999995
210
0
220
0
230
1
0
CIRCLE
5
116
100
AcDbEntity
8
0
100
AcDbCircle
10
26.885899999999999
20
16.802099999999999
30
0
40
3.1499999999999995
210
0
220
0
230
1
0
CIRCLE
5
117
100
AcDbEntity
8
0
100
AcDbCircle
10
46.710599999999999
20
16.789400000000001
30
0
40
3.1499999999999999
210
0
220
0
230
1
0
CIRCLE
5
118
100
AcDbEntity
8
0
100
AcDbCircle
10
66.535300000000007
20
16.789400000000001
30
0
40
3.1500000000000004
210
0
220
0
230
1
0
CIRCLE
5
119
100
AcDbEntity
8
0
100
AcDbCircle
10
66.535300000000021
20
5.2958999999999996
30
0
40
3.1499999999999999
210
0
220
0
230
1
0
CIRCLE
5
120
100
AcDbEntity
8
0
100
AcDbCircle
10
46.710599999999999
20
5.3086000000000002
30
0
40
3.1500000000000021
210
0
220
0
230
1
0
CIRCLE
5
121
100
AcDbEntity
8
0
100
AcDbCircle
10
26.898600000000002
20
5.3086000000000011
30
0
40
3.1500000000000004
210
0
220
0
230
1
0
CIRCLE
5
122
100
AcDbEntity
8
0
100
AcDbCircle
10
7.0612000000000013
20
5.2958999999999996
30
0
40
3.1499999999999999
210
0
220
0
230
1
0
CIRCLE
5
123
100
AcDbEntity
8
0
100
AcDbCircle
10
7.0612000000000013
20
53.085999999999999
30
0
40
3.7499999999999978
210
0
220
0
230
1
0
CIRCLE
5
124
100
AcDbEntity
8
0
100
AcDbCircle
10
26.873199999999997
20
53.085999999999999
30
0
40
3.7500000000000022
210
0
220
0
230
1
0
CIRCLE
5
125
100
AcDbEntity
8
0
100
AcDbCircle
10
46.710599999999999
20
53.086000000000013
30
0
40
3.75
210
0
220
0
230
1
0
CIRCLE
5
126
100
AcDbEntity
8
0
100
AcDbCircle
10
66.522599999999997
20
53.086050000000007
30
0
40
3.7499999999999978
210
0
220
0
230
1
0
CIRCLE
5
127
100
AcDbEntity
8
0
100
AcDbCircle
10
66.548000000000016
20
100.30460000000002
30
0
40
3.1000000000000014
210
0
220
0
230
1
0
CIRCLE
5
128
100
AcDbEntity
8
0
100
AcDbCircle
10
46.710600000000007
20
100.30460000000002
30
0
40
3.1000000000000054
210
0
220
0
230
1
0
CIRCLE
5
129
100
AcDbEntity
8
0
100
AcDbCircle
10
7.0612000000000048
20
100.30460000000002
30
0
40
2.6000000000000014
210
0
220
0
230
1
0
LWPOLYLINE
5
130
100
AcDbEntity
8
0
100
AcDbPolyline
90
4
70
1
43
0.0
10
77.248350000000002
20
-10.759205978977855
10
-3.6516500000000107
20
-10.759205978977855
10
-3.6516500000000107
20
117.74079402102214
10
77.248350000000002
20
117.74079402102214
0
LWPOLYLINE
5
131
100
AcDbEntity
8
0
100
AcDbPolyline
90
4
70
1
43
0.0
10
3.8483499999999893
20
113.14079402102212
10
7.8483499999999893
20
113.14079402102212
42
0.99999999999999989
10
7.8483499999999893
20
116.34079402102213
10
3.8483499999999893
20
116.34079402102213
42
0.99999999999999989
0
LWPOLYLINE
5
132
100
AcDbEntity
8
0
100
AcDbPolyline
90
4
70
1
43
0.0
10
65.848349999999982
20
113.14079402102212
10
69.848349999999982
20
113.14079402102212
42
0.99999999999999989
10
69.848349999999982
20
116.34079402102213
10
65.848349999999982
20
116.34079402102213
42
0.99999999999999989
0
LWPOLYLINE
5
133
100
AcDbEntity
8
0
100
AcDbPolyline
90
4
70
1
43
0.0
10
7.8483499999999893
20
-6.1592059789778535
10
3.8483499999999893
20
-6.1592059789778535
42
0.99999999999999989
10
3.8483499999999893
20
-9.3592059789778563
10
7.8483499999999893
20
-9.3592059789778563
42
0.99999999999999989
0
LWPOLYLINE
5
134
100
AcDbEntity
8
0
100
AcDbPolyline
90
4
70
1
43
0.0
10
65.848349999999982
20
-9.3592059789778563
10
69.848349999999982
20
-9.3592059789778563
42
0.99999999999999989
10
69.848349999999982
20
-6.1592059789778535
10
65.848349999999982
20
-6.1592059789778535
42
0.99999999999999989
0
ENDSEC
0
SECTION
2
OBJECTS
0
DICTIONARY
5
C
100
AcDbDictionary
3
ACAD_GROUP
350
D
3
ACAD_MLINESTYLE
350
17
0
DICTIONARY
5
D
100
AcDbDictionary
0
DICTIONARY
5
1A
330
C
100
AcDbDictionary
0
DICTIONARY
5
17
100
AcDbDictionary
0
ENDSEC
0
EOF
